<svg width="208" height="58" viewBox="0 0 208 58" fill="none" xmlns="http://www.w3.org/2000/svg">
<g filter="url(#filter0_i_251_2988)">
<path d="M3.41335 48V8.72727H11.5824V23.4929H11.8317C12.1896 22.7003 12.7074 21.8949 13.3849 21.0767C14.0753 20.2457 14.9702 19.5554 16.0696 19.0057C17.1818 18.4432 18.5625 18.1619 20.2116 18.1619C22.3594 18.1619 24.3409 18.7244 26.1562 19.8494C27.9716 20.9616 29.4226 22.6428 30.5092 24.8928C31.5959 27.13 32.1392 29.9361 32.1392 33.3111C32.1392 36.5966 31.6087 39.3707 30.5476 41.6335C29.4993 43.8835 28.0675 45.5902 26.2521 46.7536C24.4496 47.9041 22.4297 48.4794 20.1925 48.4794C18.6072 48.4794 17.2585 48.2173 16.1463 47.6932C15.0469 47.169 14.1456 46.5107 13.4425 45.718C12.7393 44.9126 12.2024 44.1009 11.8317 43.2827H11.4673V48H3.41335ZM11.4098 33.2727C11.4098 35.0241 11.6527 36.5518 12.1385 37.8558C12.6243 39.1598 13.3274 40.1761 14.2479 40.9048C15.1683 41.6207 16.2869 41.9787 17.6037 41.9787C18.9332 41.9787 20.0582 41.6143 20.9787 40.8857C21.8991 40.1442 22.5959 39.1214 23.0689 37.8175C23.5547 36.5007 23.7976 34.9858 23.7976 33.2727C23.7976 31.5724 23.5611 30.0767 23.0881 28.7855C22.6151 27.4943 21.9183 26.4844 20.9979 25.7557C20.0774 25.027 18.946 24.6626 17.6037 24.6626C16.2741 24.6626 15.1491 25.0142 14.2287 25.7173C13.321 26.4205 12.6243 27.4176 12.1385 28.7088C11.6527 30 11.4098 31.5213 11.4098 33.2727ZM45.9892 48.5561C44.1099 48.5561 42.4352 48.2301 40.965 47.5781C39.4949 46.9134 38.3315 45.9354 37.475 44.6442C36.6312 43.3402 36.2093 41.7166 36.2093 39.7734C36.2093 38.1371 36.5098 36.7628 37.1106 35.6506C37.7115 34.5384 38.5297 33.6435 39.5652 32.9659C40.6007 32.2884 41.7768 31.777 43.0936 31.4318C44.4231 31.0866 45.8166 30.8438 47.274 30.7031C48.987 30.5241 50.3677 30.358 51.416 30.2045C52.4643 30.0384 53.225 29.7955 53.698 29.4759C54.171 29.1562 54.4075 28.6832 54.4075 28.0568V27.9418C54.4075 26.7273 54.024 25.7876 53.2569 25.1229C52.5027 24.4581 51.4288 24.1257 50.0353 24.1257C48.5652 24.1257 47.3954 24.4517 46.5261 25.1037C45.6568 25.7429 45.0815 26.5483 44.8002 27.5199L37.2449 26.9062C37.6284 25.1165 38.3826 23.5696 39.5076 22.2656C40.6326 20.9489 42.0836 19.9389 43.8606 19.2358C45.6504 18.5199 47.7214 18.1619 50.0737 18.1619C51.7101 18.1619 53.2761 18.3537 54.7718 18.7372C56.2804 19.1207 57.6163 19.7152 58.7797 20.5206C59.9558 21.326 60.8826 22.3615 61.5602 23.6271C62.2377 24.88 62.5765 26.3821 62.5765 28.1335V48H54.8294V43.9155H54.5993C54.1262 44.8359 53.4934 45.6477 52.7008 46.3509C51.9082 47.0412 50.9558 47.5845 49.8436 47.9808C48.7314 48.3643 47.4466 48.5561 45.9892 48.5561ZM48.3287 42.9183C49.5304 42.9183 50.5914 42.6818 51.5119 42.2088C52.4324 41.723 53.1547 41.071 53.6788 40.2528C54.2029 39.4347 54.465 38.5078 54.465 37.4723V34.3466C54.2093 34.5128 53.8578 34.6662 53.4103 34.8068C52.9757 34.9347 52.4835 35.0561 51.9338 35.1712C51.3841 35.2734 50.8343 35.3693 50.2846 35.4588C49.7349 35.5355 49.2363 35.6058 48.7889 35.6697C47.8301 35.8104 46.9927 36.0341 46.2768 36.3409C45.5609 36.6477 45.0048 37.0632 44.6085 37.5874C44.2122 38.0987 44.014 38.7379 44.014 39.505C44.014 40.6172 44.4167 41.4673 45.2221 42.0554C46.0403 42.6307 47.0758 42.9183 48.3287 42.9183ZM77.0833 30.9716V48H68.9142V18.5455H76.6998V23.7422H77.0449C77.6969 22.0291 78.79 20.674 80.324 19.6768C81.8581 18.6669 83.7182 18.1619 85.9043 18.1619C87.9498 18.1619 89.7331 18.6094 91.2544 19.5043C92.7757 20.3991 93.9583 21.6776 94.802 23.3395C95.6458 24.9886 96.0677 26.9574 96.0677 29.2457V48H87.8986V30.7031C87.9114 28.9006 87.4512 27.4943 86.5179 26.4844C85.5847 25.4616 84.2999 24.9503 82.6635 24.9503C81.5641 24.9503 80.5925 25.1868 79.7488 25.6598C78.9178 26.1328 78.2658 26.8232 77.7928 27.7308C77.3326 28.6257 77.0961 29.706 77.0833 30.9716ZM113.36 48.4794C111.123 48.4794 109.096 47.9041 107.281 46.7536C105.478 45.5902 104.047 43.8835 102.985 41.6335C101.937 39.3707 101.413 36.5966 101.413 33.3111C101.413 29.9361 101.956 27.13 103.043 24.8928C104.13 22.6428 105.574 20.9616 107.377 19.8494C109.192 18.7244 111.18 18.1619 113.341 18.1619C114.99 18.1619 116.364 18.4432 117.463 19.0057C118.576 19.5554 119.471 20.2457 120.148 21.0767C120.838 21.8949 121.363 22.7003 121.721 23.4929H121.97V8.72727H130.12V48H122.066V43.2827H121.721C121.337 44.1009 120.794 44.9126 120.091 45.718C119.4 46.5107 118.499 47.169 117.387 47.6932C116.287 48.2173 114.945 48.4794 113.36 48.4794ZM115.949 41.9787C117.265 41.9787 118.377 41.6207 119.285 40.9048C120.206 40.1761 120.909 39.1598 121.395 37.8558C121.893 36.5518 122.142 35.0241 122.142 33.2727C122.142 31.5213 121.9 30 121.414 28.7088C120.928 27.4176 120.225 26.4205 119.304 25.7173C118.384 25.0142 117.265 24.6626 115.949 24.6626C114.606 24.6626 113.475 25.027 112.554 25.7557C111.634 26.4844 110.937 27.4943 110.464 28.7855C109.991 30.0767 109.755 31.5724 109.755 33.2727C109.755 34.9858 109.991 36.5007 110.464 37.8175C110.95 39.1214 111.647 40.1442 112.554 40.8857C113.475 41.6143 114.606 41.9787 115.949 41.9787ZM150.259 48.5753C147.23 48.5753 144.622 47.9616 142.436 46.7344C140.262 45.4943 138.588 43.7429 137.411 41.4801C136.235 39.2045 135.647 36.5135 135.647 33.407C135.647 30.3771 136.235 27.718 137.411 25.4297C138.588 23.1413 140.243 21.358 142.378 20.0795C144.526 18.8011 147.044 18.1619 149.933 18.1619C151.877 18.1619 153.686 18.4751 155.36 19.1016C157.048 19.7152 158.518 20.642 159.771 21.8821C161.036 23.1222 162.021 24.6818 162.724 26.5611C163.427 28.4276 163.779 30.6136 163.779 33.1193V35.3629H138.907V30.3004H156.089C156.089 29.1243 155.833 28.0824 155.322 27.1747C154.811 26.267 154.101 25.5575 153.193 25.0462C152.298 24.522 151.257 24.2599 150.068 24.2599C148.828 24.2599 147.728 24.5476 146.769 25.1229C145.823 25.6854 145.082 26.446 144.545 27.4048C144.008 28.3509 143.733 29.4055 143.72 30.5689V35.3821C143.72 36.8395 143.989 38.0987 144.526 39.1598C145.075 40.2209 145.849 41.0391 146.846 41.6143C147.843 42.1896 149.026 42.4773 150.394 42.4773C151.301 42.4773 152.132 42.3494 152.887 42.0938C153.641 41.8381 154.286 41.4545 154.823 40.9432C155.36 40.4318 155.769 39.8054 156.051 39.0639L163.606 39.5625C163.222 41.3778 162.436 42.9631 161.247 44.3182C160.071 45.6605 158.55 46.7088 156.683 47.4631C154.83 48.2045 152.688 48.5753 150.259 48.5753ZM179.963 48.4794C177.726 48.4794 175.7 47.9041 173.884 46.7536C172.082 45.5902 170.65 43.8835 169.589 41.6335C168.541 39.3707 168.017 36.5966 168.017 33.3111C168.017 29.9361 168.56 27.13 169.646 24.8928C170.733 22.6428 172.178 20.9616 173.98 19.8494C175.796 18.7244 177.784 18.1619 179.944 18.1619C181.593 18.1619 182.968 18.4432 184.067 19.0057C185.179 19.5554 186.074 20.2457 186.752 21.0767C187.442 21.8949 187.966 22.7003 188.324 23.4929H188.573V8.72727H196.723V48H188.669V43.2827H188.324C187.941 44.1009 187.397 44.9126 186.694 45.718C186.004 46.5107 185.102 47.169 183.99 47.6932C182.891 48.2173 181.548 48.4794 179.963 48.4794ZM182.552 41.9787C183.869 41.9787 184.981 41.6207 185.889 40.9048C186.809 40.1761 187.512 39.1598 187.998 37.8558C188.497 36.5518 188.746 35.0241 188.746 33.2727C188.746 31.5213 188.503 30 188.017 28.7088C187.531 27.4176 186.828 26.4205 185.908 25.7173C184.987 25.0142 183.869 24.6626 182.552 24.6626C181.21 24.6626 180.078 25.027 179.158 25.7557C178.237 26.4844 177.541 27.4943 177.068 28.7855C176.595 30.0767 176.358 31.5724 176.358 33.2727C176.358 34.9858 176.595 36.5007 177.068 37.8175C177.553 39.1214 178.25 40.1442 179.158 40.8857C180.078 41.6143 181.21 41.9787 182.552 41.9787Z" fill="black"/>
</g>
<defs>
<filter id="filter0_i_251_2988" x="3.41357" y="8.72729" width="193.31" height="43.848" filterUnits="userSpaceOnUse" color-interpolation-filters="sRGB">
<feFlood flood-opacity="0" result="BackgroundImageFix"/>
<feBlend mode="normal" in="SourceGraphic" in2="BackgroundImageFix" result="shape"/>
<feColorMatrix in="SourceAlpha" type="matrix" values="0 0 0 0 0 0 0 0 0 0 0 0 0 0 0 0 0 0 127 0" result="hardAlpha"/>
<feOffset dy="4"/>
<feGaussianBlur stdDeviation="2"/>
<feComposite in2="hardAlpha" operator="arithmetic" k2="-1" k3="1"/>
<feColorMatrix type="matrix" values="0 0 0 0 0 0 0 0 0 0 0 0 0 0 0 0 0 0 0.25 0"/>
<feBlend mode="normal" in2="shape" result="effect1_innerShadow_251_2988"/>
</filter>
</defs>
</svg>
